<?xml version="1.0" encoding="utf-8"?>
<!-- Generator: Adobe Illustrator 24.2.3, SVG Export Plug-In . SVG Version: 6.00 Build 0)  -->
<svg version="1.1" id="Layer_1" xmlns="http://www.w3.org/2000/svg" xmlns:xlink="http://www.w3.org/1999/xlink" x="0px" y="0px"
	 viewBox="0 0 194 259" style="enable-background:new 0 0 194 259;" xml:space="preserve">
<style type="text/css">
	.st0{fill:#094173;}
	.st1{fill:#1379AE;}
	.st2{fill:#A7CD38;}
</style>
<g>
	<path class="st0" d="M19,128.1c-1.7-2.1-2-3.3-2-7.7c0-2.7,0.2-4.9,0.6-5.7c2.7-4.8,5.9-4.3,5.9,0.9c0,2.5-1.2,4.5-3,5.1
		c-1.1,0.4-1.5,0.9-1.8,2.3c-0.4,2.4,0,3.2,1.8,3.9c0.9,0.3,1.5,0.9,1.5,1.2C22,129.3,19.8,129.1,19,128.1z"/>
</g>
<g>
	<path class="st1" d="M171.5,155.2c-1.5-0.6-3.2-1.2-3.8-1.4c-0.9-0.3-0.9-0.4,0.2-1.3c0.7-0.5,2.1-1.4,3.1-1.8l1.8-0.8l2.8,1.9
		c1.6,1,2.8,2.1,2.8,2.2c0,0.6-2.8,2.5-3.6,2.4C174.6,156.4,173,155.8,171.5,155.2L171.5,155.2z"/>
	<path class="st0" d="M148.9,137.9c-0.5-0.2-0.9-0.8-0.9-1.1c0-0.6,4.4-10.3,6.1-13.7c0.5-0.9,1.2-1.6,1.8-1.6
		c1.4,0,3.1,1.4,3.1,2.5c0,0.6-1.1,3.9-2.4,7.5c-2.4,6.8-2.6,7.1-5.6,7.1C150.3,138.4,149.4,138.2,148.9,137.9z"/>
	<path class="st0" d="M142,128.9c0-1-0.2-1-2.1-0.7l-2,0.4l0.2-6.2c0.1-3.4,0.5-6.8,0.8-7.3c0.8-1.3,2.7-1.4,4.1-0.1
		c0.9,0.9,1,1.7,1,8c0,6.7-0.1,7-1,7C142.3,130,142,129.6,142,128.9z"/>
	<path class="st0" d="M20.1,129c-1.8-0.8-1.4-1.4,1.2-1.7c3.4-0.4,6-2,10.5-6.3l4-3.8l-0.7-3.2c-0.8-3.8-0.5-5.4,1.2-7.6
		c1.7-1.9,5.9-3.4,6.4-2.2c0.2,0.7-0.1,4.1-0.5,4.5c-0.1,0.1-0.8-0.1-1.7-0.4c-2.4-0.9-3.1,0-3.1,3.7c0,3.2,0.6,3.8,2.2,1.9
		c1.1-1.2,1.6-1.2,1.9-0.1c0.1,0.4-0.5,1.6-1.4,2.5l-1.5,1.7l1.2,2.1c1,1.6,1,2.1,0.5,2.4c-1.1,0.6-1.3,0.6-2.3-1.1
		c-0.5-0.8-1.2-1.5-1.5-1.5c-0.4,0-2.4,1.6-4.5,3.6C26.7,128.5,23,130.2,20.1,129z"/>
</g>
<g>
	<path class="st0" d="M167.5,171.5c-4.9-2.1-5.1-2.9-2.4-10.8c0.3-0.8,0.6-2.4,0.9-3.5c0.1-1.1,0.4-2,0.6-2c0.7,0,6.5,2.6,6.5,2.9
		c0,0.2-0.9,0.9-1.9,1.4c-1.1,0.6-2.1,1.2-2.2,1.4c-0.1,0.2,0.4,3,1.2,6.1c0.9,3.1,1.5,5.7,1.5,5.8
		C171.5,173.2,170.8,172.9,167.5,171.5L167.5,171.5z"/>
	<path class="st0" d="M132.5,162.1c-0.7-0.1-1.4-0.4-1.5-0.6s-1.1-0.8-2-1.4c-1.4-0.8-1.8-1.3-1.9-2.8c-0.1-1.2,0.1-1.9,0.5-1.9
		c0.8,0,2.2-2.6,1.4-2.9c-0.2-0.1-0.5-0.5-0.5-0.9c0-1,2.3-1.4,4.5-0.7c1.8,0.6,2.2,0.5,3.8-0.4c1.3-0.7,1.9-0.8,2.3-0.4
		s0,1.1-1.9,2.9c-1.6,1.4-2.9,3.1-3.4,4.6c-1.1,2.9-0.6,3.4,0.7,0.6c0.9-2.1,5.1-6.4,6.1-6.4c0.2,0,0.6,1.1,0.6,2.4
		c0.1,1.3,0.2,1.9,0.3,1.5c0.1-0.5,0.6-0.9,0.9-0.9c0.5,0,0.7,0.6,0.7,2.2c0,2.1-0.1,2.2-1.6,2.4c-1.2,0.1-1.8,0.5-2.3,1.6
		c-0.6,1.2-0.9,1.4-3,1.3C134.8,162.4,133.2,162.2,132.5,162.1L132.5,162.1z"/>
	<path class="st0" d="M74.5,156.4c-13.2-0.4-15-0.6-19.4-2.9c-1.3-0.6-2.9-2.2-4.5-4.4c-5.8-7.9-7.2-11.9-6-17.5
		c0.6-3.2,0.6-3.3-0.6-4.1c-1.8-1.1-5.4-5-5.4-5.8c0-1.1,1.5-1.4,2.3-0.4c0.4,0.5,0.7,1,0.7,1.1s1.1,1.1,2.5,2.1l2.5,1.8l1.8-2.4
		c1-1.3,2.5-3.1,3.5-4.1c1-0.9,1.7-1.9,1.5-2.1c-0.1-0.2-1.6-0.8-3.3-1.2c-2.3-0.7-3.2-1.2-3.8-2.3c-0.5-0.8-1-1.4-1.2-1.4
		s-1.2,0.7-2.3,1.5c-2.3,1.8-2.5,1.8-2.5,0.3c0-0.8,0.7-1.7,2-2.7c1.1-0.8,2-1.6,2-1.8s-0.8-0.7-1.8-1.2c-1.9-1-1.8-0.9-1.3-2.4
		c0.2-0.6,0.2-1.2-0.1-1.7c-0.2-0.3-0.4-0.8-0.1-1c0.8-0.8,5.1-0.2,7.2,0.8L50,106l4-3.2c8-6.4,9.9-7.8,15.3-11.2
		c6.4-4.1,10.2-6.1,15.1-7.8c4.7-1.7,8.7-2,8.7-0.8c0,0.3-1.9,2.6-4.2,4.9c-4.3,4.4-11.3,13.3-16.7,21.3c-1.7,2.6-4.9,6.7-7,9.2
		c-6.2,7.3-7.6,9.1-8.2,10.2c-0.5,0.9-0.3,0.9,2,0.6c1.4-0.1,4.2-1.1,6.3-2.1c2.2-1,4.1-1.8,4.4-1.8c0.6,0,0.5,1.8-0.2,2.4
		c-1.5,1.2-8.8,3.7-11.7,4c-4,0.4-4.3,0.9-4,5.9c0.3,4.9,2.5,9.6,5.2,11.4c3.8,2.4,5.8,2.9,17.2,3.4c12.3,0.5,14,0.7,14,1.7
		c0,0.4-0.2,0.8-0.4,0.8s-0.6,0.4-0.7,1c-0.2,0.6-0.6,0.9-0.9,0.9C87.6,156.8,81.5,156.6,74.5,156.4L74.5,156.4z M60.8,111.1
		c2.3-2.2,5.6-5.6,7.3-7.7s6.2-6.8,10-10.7c3.8-3.8,6.6-6.8,6.2-6.8c-2.7,0.1-16.6,8.5-21.8,13.3c-1.2,1.1-4.1,3.4-6.3,5.2
		c-4.2,3.1-4.8,3.9-3.5,5c0.4,0.3,1.2,1.7,1.8,3.1s1.3,2.5,1.6,2.5S58.5,113.2,60.8,111.1z"/>
	<path class="st2" d="M161.8,151.2c-1.6-0.6-3.1-1.4-3.3-1.6c-0.6-0.6,2.1-4.6,3.1-4.6c0.5,0,2.1,0.6,3.7,1.3l2.8,1.3l-1.1,1.9
		c-0.6,1.1-1.4,2.2-1.6,2.4C164.9,152.2,163.5,151.9,161.8,151.2L161.8,151.2z"/>
	<path class="st0" d="M131.8,148.9c-1.8-2.8-2.2-13.1-0.6-15.7c0.9-1.2,3.1-1.6,4.8-0.6c1.3,0.7,1.2,3.7-0.1,6.1
		c-1.4,2.4-1.2,5.1,0.2,8.1c1.1,2.2,1.2,2.4,0.2,2.8C134.9,150.4,132.6,150.1,131.8,148.9L131.8,148.9z"/>
	<path class="st0" d="M140.9,148.4c-0.5-0.2-1.1-0.4-1.4-0.2c-0.7,0.4-2.3-1.6-3.1-3.6c-0.7-2-0.2-5.1,0.8-5.1
		c0.8,0,7.3,4.4,10.2,6.9c2.1,1.8,2.1,1.9,0.9,2.1C146.6,149.1,141.9,149,140.9,148.4L140.9,148.4z"/>
	<path class="st0" d="M148.2,145.4c-3.1-2.4-8.7-6.1-9.9-6.6c-0.8-0.3-0.9-0.9-0.6-5.4c0.4-7,0.5-7.4,1.7-7.1
		c0.6,0.1,1.4-0.1,1.9-0.6c0.5-0.4,1.1-0.6,1.2-0.4c0.2,0.1,0.4,0,0.4-0.4c0.1-1.4,0.9,4.3,0.9,7.3c0.1,1.6,0.3,3.9,0.7,4.9l0.6,2
		l1.9-2.1l1.8-2.1l1.1,1.1c0.9,0.9,1.3,0.9,2.1,0.6c0.5-0.2,1.3-0.5,1.8-0.5c1,0,0.9,0.6-1.4,6.8l-1.6,4.6L148.2,145.4L148.2,145.4z
		"/>
	<path class="st0" d="M68.1,139.3c-4-1.3-3.8-1.1-2.8-2.7c0.7-1,5.1-7.4,8.1-11.6c0.1-0.1,9.2,2.1,15.1,3.8c1,0.3,1.1,0.6,0.8,1.9
		c-0.2,0.9-0.5,1.8-0.8,2.1s-0.3,0.2-0.2-0.4c0.4-1.1,0.6-1.1-2.7,0.1c-1.4,0.6-2.8,0.9-3.1,0.8c-0.2-0.1-0.8-1.1-1.3-2.3
		c-0.5-1.1-1.1-1.9-1.3-1.9c-0.2,0.1-2.1,2.6-4.1,5.4c-2.3,3.4-3.9,5.3-4.6,5.4C70.7,139.9,69.3,139.7,68.1,139.3z"/>
	<path class="st2" d="M116.8,135c-1.3-0.5-4.2-1.4-6.2-2l-3.7-1.1l1.2-1c0.7-0.6,2.2-1.6,3.3-2.2l2.1-1.2l3.9,1.4
		c4.3,1.5,4.7,1.9,3.9,5.4C120.9,136.2,120.4,136.4,116.8,135z"/>
	<path class="st1" d="M93,127.9c-1.8-0.5-6.4-1.8-10.2-2.7c-3.8-1-7.3-1.9-7.7-2c-0.5-0.2-0.4-0.7,0.5-2.1c1.9-3.4,1.9-3.4,5.4-2.4
		c2.4,0.6,3.4,1.2,4.2,2.4c0.6,0.9,1.5,2.1,2,2.6l0.9,1.1l2.9-1.5l2.8-1.4l3.4,0.9c1.9,0.4,3.7,1,3.9,1.2c0.2,0.2-0.2,1.4-1,2.7
		C98.5,129.3,98.1,129.4,93,127.9z"/>
</g>
<g>
	<path class="st0" d="M137.5,175.9c-2.2-1.9-7.9-4.6-11.8-5.6c-3.8-0.9-6.4-0.9-9.6,0c-1.3,0.4-2.8,0.8-3.2,0.8
		c-0.4,0-1.5-1.2-2.4-2.7c-2-3.4-4.9-6-8.8-7.9c-3.5-1.6-10.1-3.4-12.8-3.4c-2.1,0-2.8-0.6-1.9-1.8c0.4-0.6,0.4-0.8,0.1-0.8
		s-0.6-0.2-0.6-0.6c0-1.2,20,0.8,26.2,2.6c1.9,0.6,5.1,1.8,6.9,2.8c1.9,0.9,3.5,1.6,3.6,1.6c0.1-0.1-0.2-1.2-0.7-2.6
		c-0.8-2.7-1.2-10.4-0.5-12c0.4-0.9,0.6-0.8,1.4,0.9c1.2,2.2,3.6,3.9,5.8,3.9c1.1,0,1.6,0.3,1.9,0.9c0.4,1.2-1.2,5.1-2.2,5.1
		c-0.6,0-0.6,0.1-0.1,0.8c0.4,0.4,0.9,0.8,1.2,0.8s1.1,0.4,1.6,0.9c0.6,0.5,2,1.1,3.1,1.3c1.8,0.3,2.1,0.2,2.4-0.6
		c0.7-1.7,1.7-2.5,3-2.2c1.1,0.2,1.2,0.1,1.2-1.6c0-1,0.2-2.4,0.4-3.1c0.5-1.1,0.2-1.5-1.8-3.4c-2.9-2.9-2.8-3.6,0.2-3.1
		c1.3,0.1,3.6,0.4,5.2,0.4c1.9,0.1,3.2,0.4,3.9,1.1c1,0.9,1.1,1.2,0.8,5.1c-0.6,6.4-1.4,8.9-4.4,11.9c-3.6,3.7-6.1,4.3-12,2.9
		c-1.3-0.3-1.2,0,2.1,4.1C140.2,177.6,140.7,178.7,137.5,175.9L137.5,175.9z"/>
	<path class="st0" d="M162.4,164.9c-0.6-2-1.3-3.9-1.5-4.1c-0.2-0.2-1.2,1.1-2.2,2.9s-2.1,3.3-2.4,3.3c-0.6,0-7.6-2.1-7.9-2.3
		c-0.2-0.1,6-10.4,7.4-12.1l0.9-1.1l5.6,2.1l5.6,2.1l-0.2,2.2c-0.1,1.2-0.6,2.9-1,3.7s-0.8,1.9-0.8,2.5c0,1.4-1.4,4.5-1.9,4.5
		C163.8,168.5,163.1,166.9,162.4,164.9z"/>
	<path class="st0" d="M115.5,153.3l-3.8-1.1l-0.2-4.9l-0.2-5l-1.9-0.6c-3.2-1-3.1-1.1-9.7,4.6l-2.2,1.9l-8.1-2.6
		c-4.4-1.4-8-2.8-8-2.9c0-0.3,4.6-7.2,6.1-9.1c1.2-1.6,1.2-2.1-0.1-2.1c-1.2,0-1.2-0.4-0.2-1.7c0.8-1,0.8-1,5.1,0.1
		c2.4,0.6,4.6,1.4,4.8,1.6c0.4,0.4-2,5.3-4.7,9.4c-0.6,0.9-0.9,1.6-0.8,1.6c0.2,0,2.8-1.9,5.7-4.2s5.9-4.4,6.6-4.6
		c0.8-0.2,4,0.6,9,2.2l7.8,2.5l-0.2,5.4c-0.2,6.6-0.6,10.7-1,10.6C119.4,154.4,117.6,153.9,115.5,153.3L115.5,153.3z"/>
	<path class="st0" d="M127.7,149.4c-2.9-1.1-4.8-6.6-3.8-11.4c0.7-3.1,2.1-4.7,4-4.4c1.2,0.1,1.2,0.2,1.4,6.1
		c0.1,3.3,0.4,6.8,0.6,7.9c0.4,1.5,0.4,1.9-0.4,2.1C129.1,149.8,128.2,149.7,127.7,149.4L127.7,149.4z"/>
</g>
</svg>
